<svg width="212" height="84" viewBox="0 0 212 84" fill="none" xmlns="http://www.w3.org/2000/svg">
<g clip-path="url(#clip0_3_106)">
<path d="M0 0C69.96 0 139.92 0 212 0C212 27.72 212 55.44 212 84C142.04 84 72.08 84 0 84C0 56.28 0 28.56 0 0Z" fill="#FAF8F7"/>
<path d="M53 12C53.6458 12.3506 54.2916 12.7013 54.957 13.0625C60.1002 16.2896 63.0114 20.8108 66 26C66.9281 27.5778 66.9281 27.5778 67.875 29.1875C70.3768 37.666 70.0726 46.6937 66.3359 54.75C60.9554 63.812 53.23 70.3029 43 73C32.9914 74.3813 25.3456 72.6847 17 67C10.4074 61.7476 5.62026 55.3866 3.99997 47C3.35075 38.4537 3.4957 31.4179 7.99997 24C8.33899 23.3877 8.67801 22.7754 9.02731 22.1445C18.3792 7.06838 38.0286 3.82892 53 12Z" fill="#FDF9F9"/>
<path d="M53 12C53.6458 12.3506 54.2916 12.7013 54.957 13.0625C60.1002 16.2896 63.0114 20.8108 66 26C66.9281 27.5778 66.9281 27.5778 67.875 29.1875C70.3768 37.666 70.0726 46.6937 66.3359 54.75C60.9554 63.812 53.23 70.3029 43 73C32.9914 74.3813 25.3456 72.6847 17 67C10.4074 61.7476 5.62026 55.3866 3.99997 47C3.35075 38.4537 3.4957 31.4179 7.99997 24C8.33899 23.3877 8.67801 22.7754 9.02731 22.1445C18.3792 7.06838 38.0286 3.82892 53 12ZM16.4062 25.9336C12.1966 32.1194 11.0374 37.6715 12 45C13.7006 51.7821 16.5028 55.8409 21.6484 60.4609C23 62 23 62 22.9375 64.9375C22.6281 65.6181 22.3187 66.2988 22 67C22.33 66.34 22.66 65.68 23 65C23.2346 65.6342 23.4692 66.2684 23.7109 66.9219C24.8192 69.1705 24.8192 69.1705 27.1015 69.8281C36.0451 71.3233 43.1184 72.2544 51 67C50.505 65.02 50.505 65.02 50 63C49.3193 63.4744 48.6387 63.9488 47.9375 64.4375C44.5894 66.2184 41.728 66.4982 38 67C37.67 67.66 37.34 68.32 37 69C36.34 68.34 35.68 67.68 35 67C32.4164 66.8331 32.4164 66.8331 30 67C30 66.34 30 65.68 30 65C30.8224 65.058 31.6448 65.116 32.4922 65.1758C40.4669 65.4981 46.5014 64.8886 53 60C58.4843 54.3447 61.28 48.619 61.375 40.6875C61.2319 33.6362 59.9885 29.2728 55.2343 24.0664C49.7241 18.849 44.241 15.9908 36.625 15.5625C28.1041 15.9298 21.6341 19.2385 16.4062 25.9336Z" fill="#D92D2D"/>
<path d="M51 20C56.3851 24.8187 60.4583 29.6489 61.3711 36.9805C61.5318 44.7419 60.733 50.6778 56 57C51.6701 61.357 47.1164 63.9614 41 65C38.0625 64.625 38.0625 64.625 36 64C36 63.01 36 62.02 36 61C39.8768 59.8071 42.9162 59 47 59C47 58.34 47 57.68 47 57C47.99 57 48.98 57 50 57C50 55.68 50 54.36 50 53C49.34 53 48.68 53 48 53C48 51.68 48 50.36 48 49C50.475 48.505 50.475 48.505 53 48C52.6785 47.4428 52.3571 46.8856 52.0259 46.3115C50.8782 43.7255 50.689 41.8338 50.5859 39.0156C50.5279 37.6138 50.5279 37.6138 50.4688 36.1836C50.4378 35.2155 50.4069 34.2474 50.375 33.25C50.317 31.7747 50.317 31.7747 50.2578 30.2695C50.1637 27.8465 50.0781 25.4235 50 23C49.34 23 48.68 23 48 23C47.67 25.97 47.34 28.94 47 32C47.66 32 48.32 32 49 32C49 35.3 49 38.6 49 42C48.01 42 47.02 42 46 42C46 39.36 46 36.72 46 34C45.34 34 44.68 34 44 34C44 36.64 44 39.28 44 42C43.67 42 43.34 42 43 42C42.34 39.03 41.68 36.06 41 33C38.03 33 35.06 33 32 33C31.67 35.97 31.34 38.94 31 42C30.34 42 29.68 42 29 42C29 39.69 29 37.38 29 35C28.34 35 27.68 35 27 35C27 37.31 27 39.62 27 42C26.01 42 25.02 42 24 42C24 38.7 24 35.4 24 32C24.66 32 25.32 32 26 32C25.67 29.03 25.34 26.06 25 23C20.8738 24.0315 19.154 25.284 16 28C17.7673 23.2282 21.4874 20.333 25.8555 18.0156C34.4699 14.3704 42.9888 15.165 51 20Z" fill="#FDF6F6"/>
<path d="M23 23C23.66 23 24.32 23 25 23C26.4783 25.9566 26.0603 28.7423 26 32C25.34 32 24.68 32 24 32C24 35.3 24 38.6 24 42C24.99 42 25.98 42 27 42C27 39.69 27 37.38 27 35C27.66 35 28.32 35 29 35C29 37.31 29 39.62 29 42C29.66 42 30.32 42 31 42C31 38.37 31 34.74 31 31C31.66 31.33 32.32 31.66 33 32C37.6528 32.3053 37.6528 32.3053 42 31C42.33 32.32 42.66 33.64 43 35C43.99 34.67 44.98 34.34 46 34C46 36.64 46 39.28 46 42C46.99 42 47.98 42 49 42C49 38.7 49 35.4 49 32C48.34 32 47.68 32 47 32C46.875 25.25 46.875 25.25 48 23C48.66 23 49.32 23 50 23C51.1334 25.2669 51.1808 26.6904 51.2812 29.2109C51.3186 30.0437 51.356 30.8764 51.3945 31.7344C51.4467 33.0415 51.4467 33.0415 51.5 34.375C51.5692 36.0913 51.642 37.8075 51.7188 39.5234C51.7642 40.6669 51.7642 40.6669 51.8105 41.8335C51.9984 43.982 52.4185 45.9265 53 48C51.35 48.33 49.7 48.66 48 49C48 50.32 48 51.64 48 53C48.66 53 49.32 53 50 53C50 53.66 50 54.32 50 55C41.09 55 32.18 55 23 55C23 54.34 23 53.68 23 53C24.32 53 25.64 53 27 53C27.33 52.01 27.66 51.02 28 50C28.5981 50.165 29.1962 50.33 29.8125 50.5C32.9844 51.225 34.9008 51.0331 38 50C38.99 50 39.98 50 41 50C40.4349 49.9749 39.8698 49.9499 39.2876 49.9241C36.7332 49.8082 34.1791 49.6854 31.625 49.5625C30.7355 49.5232 29.8461 49.4839 28.9297 49.4434C28.0789 49.4015 27.2281 49.3596 26.3516 49.3164C25.566 49.2797 24.7805 49.2431 23.9712 49.2053C22 49 22 49 20 48C20.1592 47.4323 20.3184 46.8647 20.4824 46.2798C21.0046 43.9795 21.1877 41.8779 21.2812 39.5234C21.3186 38.6881 21.356 37.8528 21.3945 36.9922C21.4652 35.2396 21.5355 33.487 21.6055 31.7344C21.6429 30.9016 21.6802 30.0689 21.7188 29.2109C21.749 28.4509 21.7793 27.6908 21.8105 26.9077C22 25 22 25 23 23Z" fill="#E67775"/>
<path d="M53 12C53.6458 12.3506 54.2916 12.7013 54.957 13.0625C61.7001 17.2934 66.0436 24.37 68 32C67.505 32.495 67.505 32.495 67 33C66.9591 35.333 66.9576 37.6671 67 40C65.68 39.67 64.36 39.34 63 39C63 38.34 63 37.68 63 37C63.66 36.67 64.32 36.34 65 36C64.5604 35.5888 64.1209 35.1776 63.668 34.7539C61.9263 32.9225 60.6467 31.081 59.3125 28.9375C58.8755 28.2453 58.4385 27.5531 57.9883 26.8398C57 25 57 25 57 23C53.7043 20.646 50.9492 19.6743 47 19C44.9926 18.3561 42.9905 17.6944 41 17C41.99 16.67 42.98 16.34 44 16C44 15.34 44 14.68 44 14C43.01 14.33 42.02 14.66 41 15C40.01 14.67 39.02 14.34 38 14C38 12.68 38 11.36 38 10C37.34 10 36.68 10 36 10C36 11.32 36 12.64 36 14C31.7739 15.3003 28.4392 16 24 16C23.67 16.99 23.34 17.98 23 19C22.4019 19.2888 21.8038 19.5775 21.1875 19.875C18.309 21.3554 16.899 23.4228 15 26C13.68 25.67 12.36 25.34 11 25C11.33 24.2369 11.66 23.4738 12 22.6875C13.1744 20.0093 13.1744 20.0093 13 17C14.9766 15.2461 14.9766 15.2461 17.625 13.4375C18.4835 12.8381 19.342 12.2387 20.2266 11.6211C30.4354 5.65396 42.8068 6.43674 53 12Z" fill="#DD3133"/>
<path d="M166 32C167.938 33.5625 167.938 33.5625 169 35C169.33 33.68 169.66 32.36 170 31C171.65 31 173.3 31 175 31C175 39.25 175 47.5 175 56C173.35 56 171.7 56 170 56C169.67 55.01 169.34 54.02 169 53C168.443 53.66 167.886 54.32 167.313 55C165 57 165 57 162.5 57.5625C160 57 160 57 157.688 54.6875C156 52 156 52 156 49C157.32 48.67 158.64 48.34 160 48C160.33 49.32 160.66 50.64 161 52C161.99 52 162.98 52 164 52C163.848 49.3323 163.554 47.5566 161.633 45.625C160.105 44.3965 158.553 43.1971 157 42C155.601 39.2013 155.747 37.095 156 34C158.348 29.7187 161.792 30.9481 166 32Z" fill="#E7E6DB"/>
<path d="M177 31C182.28 31 187.56 31 193 31C193.99 33.64 194.98 36.28 196 39C196.99 36.69 197.98 34.38 199 32C200.32 32 201.64 32 203 32C202.807 32.6432 202.613 33.2865 202.414 33.9492C200.314 41.2364 199.015 48.4893 198 56C196.68 56 195.36 56 194 56C193.89 55.1544 193.781 54.3088 193.668 53.4375C192.752 46.8876 191.622 41.0773 189 35C187.68 35 186.36 35 185 35C185 41.93 185 48.86 185 56C183.68 56 182.36 56 181 56C181 49.07 181 42.14 181 35C179.68 35 178.36 35 177 35C177 33.68 177 32.36 177 31Z" fill="#2C211C"/>
<path d="M141 31C149 31 149 31 152 32.625C154 35 154 35 154.438 37.9375C154 41 154 41 152.875 43.25C151.481 47.6307 152.897 51.6304 154 56C152.68 56 151.36 56 150 56C148.807 52.1232 148 49.0838 148 45C147.01 45 146.02 45 145 45C145 48.63 145 52.26 145 56C143.68 56 142.36 56 141 56C141 47.75 141 39.5 141 31Z" fill="#140E15"/>
<path d="M74 31C75.32 31 76.64 31 78 31C78.33 37.93 78.66 44.86 79 52C80.32 52.33 81.64 52.66 83 53C83 45.74 83 38.48 83 31C84.65 31 86.3 31 88 31C88.0875 34.229 88.1406 37.4577 88.1875 40.6875C88.2252 42.0555 88.2252 42.0555 88.2637 43.4512C88.3592 52.2093 88.3592 52.2093 85 56C81.5625 57.0625 81.5625 57.0625 78 57C75.793 55.6992 75.793 55.6992 74 53C73.5031 49.2396 73.6252 45.5345 73.75 41.75C73.7681 40.7188 73.7861 39.6875 73.8047 38.625C73.8518 36.0824 73.9175 33.5417 74 31Z" fill="#25252B"/>
<path d="M90 31C91.32 31.33 92.64 31.66 94 32C95.4844 34.7227 95.4844 34.7227 96.75 38.0625C97.178 39.1672 97.6059 40.272 98.0469 41.4102C98.3614 42.2648 98.6759 43.1195 99 44C99.33 40.04 99.66 36.08 100 32C100.99 32 101.98 32 103 32C103 39.92 103 47.84 103 56C102.01 56 101.02 56 100 56C98.35 52.37 96.7 48.74 95 45C94.67 48.63 94.34 52.26 94 56C92.68 56 91.36 56 90 56C90 47.75 90 39.5 90 31Z" fill="#161118"/>
<path d="M36.125 7.75C37.3238 7.74484 38.5227 7.73969 39.7578 7.73438C42.7837 7.98228 44.4633 8.4098 47 10C45.35 10 43.7 10 42 10C44.475 10.99 44.475 10.99 47 12C46.34 13.32 45.68 14.64 45 16C42.69 15.34 40.38 14.68 38 14C38 12.68 38 11.36 38 10C37.34 10 36.68 10 36 10C36 11.32 36 12.64 36 14C31.7739 15.3003 28.4392 16 24 16C23.67 16.99 23.34 17.98 23 19C22.4019 19.2887 21.8038 19.5775 21.1875 19.875C18.309 21.3554 16.899 23.4228 15 26C13.68 25.67 12.36 25.34 11 25C11.33 24.2369 11.66 23.4738 12 22.6875C13.1744 20.0093 13.1744 20.0093 13 17C14.9766 15.2461 14.9766 15.2461 17.625 13.4375C18.4835 12.8381 19.342 12.2387 20.2266 11.6211C25.5183 8.52804 30.0283 7.72366 36.125 7.75Z" fill="#D65A59"/>
<path d="M166 32C168 34 168 34 168 38C167.01 38.33 166.02 38.66 165 39C164.67 38.01 164.34 37.02 164 36C161.985 35.2668 161.985 35.2668 160 35C161.051 38.8547 162.744 40.818 165.625 43.4375C168.172 45.8832 168.921 46.6345 169.688 50.1875C168.84 53.6555 167.916 54.9508 165 57C162.5 57.5625 162.5 57.5625 160 57C157.688 54.6875 157.688 54.6875 156 52C156 51.01 156 50.02 156 49C157.32 48.67 158.64 48.34 160 48C160.33 49.32 160.66 50.64 161 52C161.99 52 162.98 52 164 52C163.848 49.3323 163.554 47.5566 161.633 45.625C160.105 44.3965 158.553 43.1971 157 42C155.601 39.2013 155.747 37.095 156 34C158.349 29.7171 161.785 31.0037 166 32Z" fill="#15131A"/>
<path d="M19 53C19.99 53.33 20.98 53.66 22 54C22 54.66 22 55.32 22 56C22.8663 56.2681 23.7325 56.5363 24.625 56.8125C27.9179 57.9711 30.9113 59.3821 34 61C34 61.66 34 62.32 34 63C33.34 63 32.68 63 32 63C32 63.66 32 64.32 32 65C31.34 65 30.68 65 30 65C30 65.66 30 66.32 30 67C31.98 67 33.96 67 36 67C36.33 67.66 36.66 68.32 37 69C37.66 68.34 38.32 67.68 39 67C41.3267 66.3106 43.6607 65.6453 46 65C47.3535 64.3753 48.6993 63.7284 50 63C50.495 64.98 50.495 64.98 51 67C47.2346 70.7654 43.0702 70.8773 38 71C27.891 70.7841 27.891 70.7841 25.2422 68.4531C24.8323 67.9736 24.4223 67.4941 24 67C23.67 67 23.34 67 23 67C22 64 22 64 22 61C21.3194 60.3606 20.6388 59.7213 19.9375 59.0625C19.2981 58.3819 18.6587 57.7013 18 57C18.25 54.75 18.25 54.75 19 53Z" fill="#EEA5A3"/>
<path d="M123 31C124.32 31 125.64 31 127 31C125.546 39.3814 123.82 47.6909 122 56C120.68 56 119.36 56 118 56C117.156 52.9402 116.327 49.8768 115.5 46.8125C115.262 45.9482 115.023 45.0839 114.777 44.1934C114.552 43.3522 114.326 42.5111 114.094 41.6445C113.884 40.8747 113.675 40.1049 113.459 39.3118C112.965 36.8218 112.922 34.5322 113 32C114.32 32.33 115.64 32.66 117 33C117.99 36.63 118.98 40.26 120 44C120.133 43.1454 120.266 42.2907 120.402 41.4102C120.579 40.3054 120.756 39.2007 120.938 38.0625C121.112 36.9604 121.286 35.8582 121.465 34.7227C122 32 122 32 123 31Z" fill="#100D13"/>
<path d="M21 47C31.23 47 41.46 47 52 47C51.67 47.66 51.34 48.32 51 49C50.01 49 49.02 49 48 49C48 50.32 48 51.64 48 53C48.66 53 49.32 53 50 53C50 53.66 50 54.32 50 55C41.09 55 32.18 55 23 55C23 54.34 23 53.68 23 53C24.32 53 25.64 53 27 53C27.33 52.01 27.66 51.02 28 50C28.5981 50.165 29.1962 50.33 29.8125 50.5C32.9844 51.225 34.9008 51.0331 38 50C38.99 50 39.98 50 41 50C34.73 49.67 28.46 49.34 22 49C21.67 48.34 21.34 47.68 21 47Z" fill="#DD4746"/>
<path d="M129 32C132.3 32 135.6 32 139 32C139 32.99 139 33.98 139 35C137.02 35 135.04 35 133 35C133 37.31 133 39.62 133 42C134.65 42 136.3 42 138 42C138 42.99 138 43.98 138 45C136.35 45 134.7 45 133 45C133 47.64 133 50.28 133 53C134.98 53 136.96 53 139 53C139 53.99 139 54.98 139 56C135.7 56 132.4 56 129 56C129 48.08 129 40.16 129 32Z" fill="#0A0A15"/>
<path d="M23 55C31.91 55 40.82 55 50 55C50 55.66 50 56.32 50 57C49.01 57 48.02 57 47 57C47 57.66 47 58.32 47 59C43.1232 60.1929 40.0838 61 36 61C36 61.99 36 62.98 36 64C37.65 64 39.3 64 41 64C41 64.33 41 64.66 41 65C38.03 65 35.06 65 32 65C32 64.34 32 63.68 32 63C32.66 63 33.32 63 34 63C34 62.34 34 61.68 34 61C31.03 60.505 31.03 60.505 28 60C28 59.34 28 58.68 28 58C25.525 57.01 25.525 57.01 23 56C23 55.67 23 55.34 23 55Z" fill="#FEFCFC"/>
<path d="M23 23C23.66 23 24.32 23 25 23C26.4783 25.9566 26.0603 28.7423 26 32C25.34 32 24.68 32 24 32C24 35.3 24 38.6 24 42C24.99 42 25.98 42 27 42C27 39.69 27 37.38 27 35C27.66 35 28.32 35 29 35C29 37.31 29 39.62 29 42C29.66 42 30.32 42 31 42C31 38.37 31 34.74 31 31C31.66 31.33 32.32 31.66 33 32C37.6528 32.3053 37.6528 32.3053 42 31C42.625 33.375 42.625 33.375 43 36C42.34 36.66 41.68 37.32 41 38C38.8359 37.9766 38.8359 37.9766 36.375 37.625C35.5577 37.5141 34.7405 37.4033 33.8984 37.2891C33.272 37.1937 32.6455 37.0983 32 37C32 38.65 32 40.3 32 42C32.66 42.33 33.32 42.66 34 43C30.37 43 26.74 43 23 43C22.8058 40.042 22.6193 37.0838 22.4375 34.125C22.3814 33.2832 22.3254 32.4415 22.2676 31.5742C22.2192 30.7686 22.1709 29.9629 22.1211 29.1328C22.074 28.3892 22.0268 27.6456 21.9783 26.8794C22 25 22 25 23 23Z" fill="#D82A2F"/>
<path d="M177 32C180.96 32 184.92 32 189 32C189 32.99 189 33.98 189 35C187.68 35 186.36 35 185 35C185 41.93 185 48.86 185 56C183.68 56 182.36 56 181 56C181 49.07 181 42.14 181 35C179.68 35 178.36 35 177 35C177 34.01 177 33.02 177 32Z" fill="#150616"/>
<path d="M155 35C155.33 35 155.66 35 156 35C156.186 36.0312 156.371 37.0625 156.562 38.125C157.866 42.8667 161.155 45.1931 165 48C164.67 49.65 164.34 51.3 164 53C162.68 52.67 161.36 52.34 160 52C160 50.68 160 49.36 160 48C158.68 48.33 157.36 48.66 156 49C156.33 50.65 156.66 52.3 157 54C156.01 54 155.02 54 154 54C152.109 50.7225 151.237 47.7855 151 44C152.375 41.9375 152.375 41.9375 154 40C154.714 37.3507 154.714 37.3507 155 35Z" fill="#E9E8E1"/>
<path d="M48 49C48.99 49 49.98 49 51 49C51.33 50.32 51.66 51.64 52 53C52.66 53 53.32 53 54 53C54.66 54.32 55.32 55.64 56 57C51.2497 60.9236 47.2299 63.9421 41 65C38.0625 64.625 38.0625 64.625 36 64C36 63.01 36 62.02 36 61C39.8768 59.8071 42.9162 59 47 59C47 58.34 47 57.68 47 57C47.99 57 48.98 57 50 57C50 55.68 50 54.36 50 53C49.34 53 48.68 53 48 53C48 51.68 48 50.36 48 49Z" fill="#EFABA8"/>
<path d="M29 11C28.67 11.99 28.34 12.98 28 14C28 13.34 28 12.68 28 12C26.35 12.66 24.7 13.32 23 14C23.33 15.32 23.66 16.64 24 18C23.2575 18.3919 22.515 18.7838 21.75 19.1875C18.8022 21.1304 17.069 23.1647 15 26C13.68 25.67 12.36 25.34 11 25C11.33 24.2369 11.66 23.4738 12 22.6875C13.1744 20.0093 13.1744 20.0093 13 17C14.9766 15.1406 14.9766 15.1406 17.625 13.25C18.4835 12.6158 19.342 11.9816 20.2266 11.3281C23.6271 9.6997 25.4154 10.0539 29 11Z" fill="#DC3F40"/>
<path d="M171 31C172.32 31 173.64 31 175 31C175 39.25 175 47.5 175 56C173.68 56 172.36 56 171 56C171 47.75 171 39.5 171 31Z" fill="#170719"/>
<path d="M32 9C34.97 9 37.94 9 41 9C40.01 9.33 39.02 9.66 38 10C38 11.32 38 12.64 38 14C39.98 14 41.96 14 44 14C44 14.66 44 15.32 44 16C42.4067 16.1296 42.4067 16.1296 40.7812 16.2617C31.277 17.1571 24.4176 18.2243 17.6875 25.5C16.0312 27.9537 14.4688 30.4297 13 33C12 30 12 30 12 27C12.99 27 13.98 27 15 27C15.2475 26.4225 15.495 25.845 15.75 25.25C17.532 22.0425 19.7014 19.6493 23 18C23 16.68 23 15.36 23 14C22.34 13.67 21.68 13.34 21 13C22.32 13.33 23.64 13.66 25 14C25 14.66 25 15.32 25 16C25.8869 15.67 26.7738 15.34 27.6875 15C30.7092 14.0878 32.8837 13.8167 36 14C36 12.68 36 11.36 36 10C34.68 9.67 33.36 9.34 32 9Z" fill="#D41119"/>
<path d="M128 31C131.96 31 135.92 31 140 31C140.25 41.625 140.25 41.625 138 45C138 44.01 138 43.02 138 42C136.35 42 134.7 42 133 42C133 39.69 133 37.38 133 35C134.98 35 136.96 35 139 35C139 34.01 139 33.02 139 32C135.7 32 132.4 32 129 32C129 39.92 129 47.84 129 56C128.67 56 128.34 56 128 56C128 47.75 128 39.5 128 31Z" fill="#DBD4C6"/>
<path d="M42 36C42.33 36 42.66 36 43 36C43 37.98 43 39.96 43 42C45.97 42.495 45.97 42.495 49 43C49 43.33 49 43.66 49 44C40.75 44 32.5 44 24 44C24 43.67 24 43.34 24 43C26.64 42.67 29.28 42.34 32 42C32 40.35 32 38.7 32 37C32.6381 37.0116 33.2762 37.0232 33.9336 37.0352C34.7599 37.0442 35.5862 37.0532 36.4375 37.0625C37.6731 37.0799 37.6731 37.0799 38.9336 37.0977C40.9916 37.2327 40.9916 37.2327 42 36Z" fill="#EB9493"/>
<path d="M50 19C57.2331 21.7368 57.2331 21.7368 59.0625 24.75C60 27 60 27 60.9375 30.1875C61.2881 31.1156 61.6388 32.0437 62 33C62.99 33.33 63.98 33.66 65 34C65 34.99 65 35.98 65 37C64.34 37 63.68 37 63 37C63 37.66 63 38.32 63 39C64.32 39.33 65.64 39.66 67 40C66.34 40.33 65.68 40.66 65 41C64.34 40.67 63.68 40.34 63 40C62.951 40.6265 62.902 41.253 62.8516 41.8984C62.7768 42.7157 62.702 43.533 62.625 44.375C62.5554 45.1871 62.4858 45.9992 62.4141 46.8359C62 49 62 49 60 51C60.0696 49.2984 60.0696 49.2984 60.1406 47.5625C60.5076 34.9321 58.7618 28.3459 50 19Z" fill="#D4131B"/>
<path d="M147 61C147.66 61.99 148.32 62.98 149 64C149.66 63.01 150.32 62.02 151 61C150.25 67.75 150.25 67.75 148 70C144.742 70.1953 144.742 70.1953 140.875 70.125C138.953 70.0979 138.953 70.0979 136.992 70.0703C135.511 70.0355 135.511 70.0355 134 70C134.33 68.35 134.66 66.7 135 65C136.32 64.67 137.64 64.34 139 64C139 64.66 139 65.32 139 66C139.99 65.34 140.98 64.68 142 64C143.32 64 144.64 64 146 64C146.33 63.01 146.66 62.02 147 61Z" fill="#9D99A3"/>
<path d="M19 53C19.99 53.33 20.98 53.66 22 54C22 54.66 22 55.32 22 56C22.8663 56.2681 23.7325 56.5363 24.625 56.8125C27.9179 57.9711 30.9113 59.3821 34 61C34 61.66 34 62.32 34 63C33.34 63 32.68 63 32 63C32 63.66 32 64.32 32 65C26.1997 63.4457 21.698 62.0539 18 57C18.1875 54.6875 18.1875 54.6875 19 53Z" fill="#F6D0CE"/>
<path d="M180 14C181.98 14 183.96 14 186 14C187 15 187 15 187.098 17.9414C187.086 19.1364 187.074 20.3313 187.062 21.5625C187.053 22.76 187.044 23.9576 187.035 25.1914C187.024 26.1182 187.012 27.0451 187 28C186.34 27.67 185.68 27.34 185 27C184.375 23.9375 184.375 23.9375 184 21C183.34 21 182.68 21 182 21C182 23.31 182 25.62 182 28C181.34 28 180.68 28 180 28C180 23.38 180 18.76 180 14Z" fill="#FD8B86"/>
<path d="M107 32C107.99 32 108.98 32 110 32C110 39.92 110 47.84 110 56C109.01 56 108.02 56 107 56C107 48.08 107 40.16 107 32Z" fill="black"/>
<path d="M148 14C150.31 14.33 152.62 14.66 155 15C155 19.29 155 23.58 155 28C154.34 28 153.68 28 153 28C152.67 25.69 152.34 23.38 152 21C151.34 21 150.68 21 150 21C150 23.31 150 25.62 150 28C149.34 28 148.68 28 148 28C148 23.38 148 18.76 148 14Z" fill="#FD929A"/>
<path d="M126 14C128.31 14.33 130.62 14.66 133 15C133 19.29 133 23.58 133 28C132.34 28 131.68 28 131 28C130.67 25.69 130.34 23.38 130 21C129.34 21 128.68 21 128 21C128 23.31 128 25.62 128 28C127.34 28 126.68 28 126 28C126 23.38 126 18.76 126 14Z" fill="#FD929A"/>
<path d="M48 23C48.66 23 49.32 23 50 23C51.1783 25.3566 51.0441 26.5257 50.8789 29.1328C50.8306 29.9385 50.7822 30.7441 50.7324 31.5742C50.6483 32.8369 50.6483 32.8369 50.5625 34.125C50.5103 34.9745 50.4581 35.824 50.4043 36.6992C50.2745 38.7998 50.1379 40.8999 50 43C46.37 43 42.74 43 39 43C39 42.67 39 42.34 39 42C40.65 42 42.3 42 44 42C44 39.36 44 36.72 44 34C44.66 34 45.32 34 46 34C46 36.64 46 39.28 46 42C46.99 42 47.98 42 49 42C49 38.7 49 35.4 49 32C48.34 32 47.68 32 47 32C46.875 25.25 46.875 25.25 48 23Z" fill="#D61D21"/>
<path d="M91 14C92.65 14 94.3 14 96 14C98 16 98 16 98 20C97.34 20 96.68 20 96 20C96.66 22.64 97.32 25.28 98 28C97.34 28 96.68 28 96 28C95.67 25.69 95.34 23.38 95 21C94.34 21 93.68 21 93 21C93 23.31 93 25.62 93 28C92.34 28 91.68 28 91 28C91 23.38 91 18.76 91 14Z" fill="#FD7A8B"/>
<path d="M21 59C23.3125 61.125 23.3125 61.125 25 63C23.1875 65 23.1875 65 21 67C18 67 18 67 16.3945 65.5391C15.6114 64.5916 15.6114 64.5916 14.8125 63.625C14.2827 62.9985 13.7529 62.372 13.207 61.7266C12 60 12 60 12 58C15.6375 56.6528 17.6037 57.217 21 59Z" fill="#D71F21"/>
<path d="M36 25C36.66 26.32 37.32 27.64 38 29C39.65 29 41.3 29 43 29C43 30.98 43 32.96 43 35C42.01 34.34 41.02 33.68 40 33C37.9429 32.7594 37.9429 32.7594 35.8125 32.875C34.5544 32.9163 33.2962 32.9575 32 33C31.67 35.97 31.34 38.94 31 42C30.67 42 30.34 42 30 42C30 37.71 30 33.42 30 29C31.32 28.67 32.64 28.34 34 28C34.66 27.01 35.32 26.02 36 25Z" fill="#EB9491"/>
<path d="M22 49C30.25 49 38.5 49 47 49C46.34 49.66 45.68 50.32 45 51C43.68 51 42.36 51 41 51C40.34 51.66 39.68 52.32 39 53C38.34 52.34 37.68 51.68 37 51C36.34 51.66 35.68 52.32 35 53C34.34 52.34 33.68 51.68 33 51C32.34 51.66 31.68 52.32 31 53C31 52.34 31 51.68 31 51C30.01 51 29.02 51 28 51C27.67 51.66 27.34 52.32 27 53C25.35 53 23.7 53 22 53C22 51.68 22 50.36 22 49Z" fill="#F6D1CF"/>
<path d="M81 14C81.66 14 82.32 14 83 14C83 15.98 83 17.96 83 20C84.32 20 85.64 20 87 20C87 18.02 87 16.04 87 14C87.66 14 88.32 14 89 14C89 18.62 89 23.24 89 28C88.34 28 87.68 28 87 28C87 25.69 87 23.38 87 21C85.68 21 84.36 21 83 21C83 23.31 83 25.62 83 28C82.34 28 81.68 28 81 28C81 23.38 81 18.76 81 14Z" fill="#FD6B71"/>
<path d="M139 42C139.33 42 139.66 42 140 42C140 45.63 140 49.26 140 53C137.69 53 135.38 53 133 53C133 50.36 133 47.72 133 45C134.98 45 136.96 45 139 45C139 44.01 139 43.02 139 42Z" fill="#F1F7FB"/>
<path d="M117 14C117.66 14 118.32 14 119 14C119 17.96 119 21.92 119 26C119.99 26 120.98 26 122 26C122 22.04 122 18.08 122 14C122.66 14 123.32 14 124 14C124.027 15.9583 124.046 17.9166 124.062 19.875C124.074 20.9655 124.086 22.0561 124.098 23.1797C124 26 124 26 123 28C121.334 28.0427 119.666 28.0406 118 28C117 27 117 27 116.902 24.0586C116.914 22.8636 116.926 21.6687 116.938 20.4375C116.947 19.24 116.956 18.0424 116.965 16.8086C116.976 15.8818 116.988 14.9549 117 14Z" fill="#FD767A"/>
<path d="M109 14C110.675 14.286 112.344 14.6178 114 15C114.33 15.99 114.66 16.98 115 18C114.34 18 113.68 18 113 18C113 17.34 113 16.68 113 16C112.01 16 111.02 16 110 16C110 19.3 110 22.6 110 26C110.99 26 111.98 26 113 26C112.67 24.35 112.34 22.7 112 21C112.99 21 113.98 21 115 21C115 23.31 115 25.62 115 28C113 28.0425 111 28.0408 109 28C108 27 108 27 107.867 24.3125C107.87 23.2194 107.872 22.1263 107.875 21C107.872 19.9069 107.87 18.8138 107.867 17.6875C108 15 108 15 109 14Z" fill="#FD6B6D"/>
<path d="M191 14C191.99 14 192.98 14 194 14C196.296 23.41 196.296 23.41 196 28C195.34 28 194.68 28 194 28C194 26.68 194 25.36 194 24C193.01 24 192.02 24 191 24C191 25.32 191 26.64 191 28C190.34 28 189.68 28 189 28C189.66 23.38 190.32 18.76 191 14Z" fill="#FD7377"/>
<path d="M159 14C159.66 14 160.32 14 161 14C161.99 18.29 162.98 22.58 164 27C163.01 27.495 163.01 27.495 162 28C162 26.68 162 25.36 162 24C160.68 24 159.36 24 158 24C158 25.32 158 26.64 158 28C157.34 27.67 156.68 27.34 156 27C156.99 22.71 157.98 18.42 159 14Z" fill="#FD7F81"/>
<path d="M36 10C36 11.32 36 12.64 36 14C32.1232 15.1929 29.0838 16 25 16C24.67 15.01 24.34 14.02 24 13C25.65 12.34 27.3 11.68 29 11C28.34 10.67 27.68 10.34 27 10C30.4782 8.84059 32.459 9.29179 36 10Z" fill="#E7706F"/>
<path d="M60 25C61.9375 25.125 61.9375 25.125 64 26C65.1875 28.4375 65.1875 28.4375 66 31C66.33 31.66 66.66 32.32 67 33C67.0402 35.333 67.0432 37.6671 67 40C65.68 39.67 64.36 39.34 63 39C63 38.34 63 37.68 63 37C63.66 36.67 64.32 36.34 65 36C64.5669 35.6494 64.1337 35.2987 63.6875 34.9375C61.3164 32.2151 60.3283 29.3524 59 26C59.33 25.67 59.66 25.34 60 25Z" fill="#EDA19E"/>
<path d="M49 13C50.98 13.99 52.96 14.98 55 16C55 16.66 55 17.32 55 18C55.6188 18.2475 56.2375 18.495 56.875 18.75C59.3507 20.2063 59.9513 21.3781 61 24C60.34 24 59.68 24 59 24C58.67 24.66 58.34 25.32 58 26C57.67 25.01 57.34 24.02 57 23C54.0458 20.3027 51.8147 18.2716 48 17C48.33 15.68 48.66 14.36 49 13Z" fill="#EB9795"/>
<path d="M127.164 63.8047C128.382 63.8395 128.382 63.8395 129.625 63.875C130.851 63.9021 130.851 63.9021 132.102 63.9297C133.041 63.9645 133.041 63.9645 134 64C133.34 65.98 132.68 67.96 132 70C129.03 70 126.06 70 123 70C123 64.1805 123 64.1805 127.164 63.8047Z" fill="#A5A5AB"/>
<path d="M164 64C165.145 64.2475 165.145 64.2475 166.313 64.5C169.009 65.0016 170.44 64.8533 173 64C173.33 64.99 173.66 65.98 174 67C172.68 67 171.36 67 170 67C170 67.66 170 68.32 170 69C170.66 69.33 171.32 69.66 172 70C171.443 69.8144 170.886 69.6287 170.313 69.4375C167.601 68.9245 165.656 69.3359 163 70C162.957 68.3339 162.959 66.6662 163 65C163.33 64.67 163.66 64.34 164 64Z" fill="#BAB8B8"/>
<path d="M10.0001 27C10.9901 27.33 11.9801 27.66 13.0001 28C13.0001 30.31 13.0001 32.62 13.0001 35C12.3401 35 11.6801 35 11.0001 35C10.6701 36.65 10.3401 38.3 10.0001 40C9.01005 39.67 8.02005 39.34 7.00005 39C6.70461 33.9775 7.01491 31.1046 10.0001 27Z" fill="#E88281"/>
<path d="M74 14C75.65 14.33 77.3 14.66 79 15C78.67 15.99 78.34 16.98 78 18C78 17.34 78 16.68 78 16C77.01 16 76.02 16 75 16C76.0019 18.2349 76.8112 19.8257 78.625 21.5C80 23 80 23 80 27C78.35 27.33 76.7 27.66 75 28C74.34 26.68 73.68 25.36 73 24C73.66 24 74.32 24 75 24C75 24.66 75 25.32 75 26C75.99 26 76.98 26 78 26C76.4779 23.371 75.1563 21.1563 73 19C73.375 16.375 73.375 16.375 74 14Z" fill="#FD7172"/>
<path d="M77 62C78.6754 62.286 80.3439 62.6178 82 63C81.4528 66.3746 80.9451 68.0823 79 71C77.68 70.34 76.36 69.68 75 69C75.875 63.125 75.875 63.125 77 62Z" fill="#B6B2BA"/>
<path d="M166 14C166.66 14 167.32 14 168 14C168.33 16.64 168.66 19.28 169 22C169.66 22 170.32 22 171 22C171.33 21.01 171.66 20.02 172 19C171.67 21.97 171.34 24.94 171 28C170.34 28 169.68 28 169 28C168.67 27.01 168.34 26.02 168 25C167.34 25.99 166.68 26.98 166 28C166 23.38 166 18.76 166 14Z" fill="#FD7987"/>
<path d="M21 65C22.32 65.33 23.64 65.66 25 66C25 66.99 25 67.98 25 69C25.7103 69.049 26.4205 69.098 27.1523 69.1484C28.0714 69.2232 28.9905 69.298 29.9375 69.375C31.3123 69.4794 31.3123 69.4794 32.7148 69.5859C33.846 69.7909 33.846 69.7909 35 70C35.33 70.66 35.66 71.32 36 72C28.7546 72.5345 24.2709 71.7161 18 68C18.99 67.67 19.98 67.34 21 67C21 66.34 21 65.68 21 65Z" fill="#D92A2D"/>
<path d="M90 64C93.77 64.4098 95.8011 64.8674 99 67C98.67 67.99 98.34 68.98 98 70C95.03 70 92.06 70 89 70C88.9573 68.3339 88.9594 66.6662 89 65C89.33 64.67 89.66 64.34 90 64Z" fill="#A1A3AA"/>
<path d="M24 16C23.67 16.99 23.34 17.98 23 19C22.4019 19.2888 21.8038 19.5775 21.1875 19.875C18.309 21.3554 16.899 23.4228 15 26C13.68 25.67 12.36 25.34 11 25C11.33 24.01 11.66 23.02 12 22C12.99 22 13.98 22 15 22C15.2269 21.2163 15.4538 20.4325 15.6875 19.625C17 17 17 17 19.5 15.625C22 15 22 15 24 16Z" fill="#EC9C99"/>
<path d="M155.164 63.8047C156.382 63.8395 156.382 63.8395 157.625 63.875C158.851 63.9021 158.851 63.9021 160.102 63.9297C161.041 63.9645 161.041 63.9645 162 64C161.67 64.99 161.34 65.98 161 67C161 66.34 161 65.68 161 65C160.01 65.495 160.01 65.495 159 66C158.348 68.0246 158.348 68.0246 158 70C155.69 70 153.38 70 151 70C151 64.1805 151 64.1805 155.164 63.8047Z" fill="#9295A3"/>
<path d="M123 31C124.32 31 125.64 31 127 31C126.34 34.63 125.68 38.26 125 42C124.34 41.01 123.68 40.02 123 39C122.34 39.99 121.68 40.98 121 42C121.14 40.3537 121.287 38.708 121.438 37.0625C121.519 36.146 121.6 35.2295 121.684 34.2852C122 32 122 32 123 31Z" fill="#382F30"/>
<path d="M23 63C25.31 63.33 27.62 63.66 30 64C30 65.98 30 67.96 30 70C27.625 69.75 27.625 69.75 25 69C23.6875 66.9375 23.6875 66.9375 23 65C22.67 65.66 22.34 66.32 22 67C22.33 65.68 22.66 64.36 23 63Z" fill="#DF5454"/>
<path d="M147 61C147.66 61.99 148.32 62.98 149 64C149.66 63.01 150.32 62.02 151 61C150.25 67.75 150.25 67.75 148 70C144.375 69.625 144.375 69.625 141 69C141 68.34 141 67.68 141 67C142.32 67 143.64 67 145 67C145.66 65.02 146.32 63.04 147 61Z" fill="#B9B5C3"/>
<path d="M24 32C26.475 32.495 26.475 32.495 29 33C29 33.66 29 34.32 29 35C28.34 35 27.68 35 27 35C27 37.31 27 39.62 27 42C26.01 42 25.02 42 24 42C24 38.7 24 35.4 24 32Z" fill="#EEA5A2"/>
<path d="M145 35C147.475 35.495 147.475 35.495 150 36C150 37.65 150 39.3 150 41C148.35 41.33 146.7 41.66 145 42C145 39.69 145 37.38 145 35Z" fill="#D7D9D4"/>
<path d="M145 45C145.99 45 146.98 45 148 45C150.429 52.4286 150.429 52.4286 149 56C148.67 54.35 148.34 52.7 148 51C147.34 51 146.68 51 146 51C146 52.65 146 54.3 146 56C145.67 56 145.34 56 145 56C145 52.37 145 48.74 145 45Z" fill="#C4C7BD"/>
<path d="M30 65C33.3 65 36.6 65 40 65C40.33 65.66 40.66 66.32 41 67C39 69 39 69 36 70C35.34 69.34 34.68 68.68 34 68C31.9313 67.3575 31.9313 67.3575 30 67C30 66.34 30 65.68 30 65Z" fill="#DC4244"/>
<path d="M148 14C148.99 14.495 148.99 14.495 150 15C150 16.65 150 18.3 150 20C150.66 20.33 151.32 20.66 152 21C151.34 21 150.68 21 150 21C150 23.31 150 25.62 150 28C149.34 28 148.68 28 148 28C148 23.38 148 18.76 148 14Z" fill="#FD7659"/>
<path d="M126 14C126.99 14.495 126.99 14.495 128 15C128 16.65 128 18.3 128 20C128.66 20.33 129.32 20.66 130 21C129.34 21 128.68 21 128 21C128 23.31 128 25.62 128 28C127.34 28 126.68 28 126 28C126 23.38 126 18.76 126 14Z" fill="#FD7659"/>
<path d="M75 16C76.98 16 78.96 16 81 16C81 18.31 81 20.62 81 23C80.34 23 79.68 23 79 23C79 22.34 79 21.68 79 21C77.68 20.34 76.36 19.68 75 19C75 18.01 75 17.02 75 16Z" fill="#FEEBF4"/>
<path d="M14 55C14 55.99 14 56.98 14 58C13.34 58 12.68 58 12 58C13.98 60.31 15.96 62.62 18 65C17.67 65.66 17.34 66.32 17 67C14.36 64.36 11.72 61.72 9 59C9.33 58.01 9.66 57.02 10 56C12 55 12 55 14 55Z" fill="#E54E4D"/>
<path d="M45 60C44.34 61.65 43.68 63.3 43 65C40.69 64.67 38.38 64.34 36 64C36 63.01 36 62.02 36 61C39.0732 60.0894 41.801 59.9111 45 60Z" fill="#F0B2AF"/>
<path d="M50 32C50.33 32 50.66 32 51 32C51 36.62 51 41.24 51 46C48.03 46 45.06 46 42 46C45 44 45 44 49 43C49.33 39.37 49.66 35.74 50 32Z" fill="#E67472"/>
<path d="M47 32C47.66 32 48.32 32 49 32C49 35.3 49 38.6 49 42C48.01 42 47.02 42 46 42C45.875 34.25 45.875 34.25 47 32Z" fill="#EFA8A6"/>
<path d="M29 66C31.3431 66.2556 33.6784 66.5927 36 67C36.33 67.66 36.66 68.32 37 69C37.66 68.34 38.32 67.68 39 67C39.33 67.99 39.66 68.98 40 70C35.707 71.2626 33.1217 70.6295 29 69C29 68.01 29 67.02 29 66Z" fill="#F3BEBC"/>
<path d="M43 59C46.199 58.9111 48.9268 59.0894 52 60C46.5846 64.0615 46.5846 64.0615 43.625 63.75C43.0888 63.5025 42.5525 63.255 42 63C42.33 61.68 42.66 60.36 43 59Z" fill="#F7D5D3"/>
<path d="M112 64C112.99 64 113.98 64 115 64C115 65.65 115 67.3 115 69C113.35 69.33 111.7 69.66 110 70C110.875 65.125 110.875 65.125 112 64Z" fill="#B2A7AA"/>
<path d="M21 13C22.32 13.33 23.64 13.66 25 14C25 14.66 25 15.32 25 16C26.98 15.34 28.96 14.68 31 14C31.33 14.99 31.66 15.98 32 17C27.545 18.485 27.545 18.485 23 20C23 18.02 23 16.04 23 14C22.34 13.67 21.68 13.34 21 13Z" fill="#D51B22"/>
<path d="M46 14C46.66 14.33 47.32 14.66 48 15C48 15.66 48 16.32 48 17C48.8044 17.1237 49.6088 17.2475 50.4375 17.375C51.7059 17.6844 51.7059 17.6844 53 18C53.33 18.66 53.66 19.32 54 20C49.4287 19.4514 45.3256 18.5826 41 17C41.6394 16.6906 42.2787 16.3812 42.9375 16.0625C44.9361 15.1655 44.9361 15.1655 46 14Z" fill="#DB3A3C"/>
<path d="M109 14C110.675 14.286 112.344 14.6178 114 15C114.33 15.99 114.66 16.98 115 18C114.34 18 113.68 18 113 18C113 17.34 113 16.68 113 16C112.01 16 111.02 16 110 16C110 19.3 110 22.6 110 26C109.67 26 109.34 26 109 26C108.806 24.1882 108.62 22.3755 108.438 20.5625C108.333 19.5532 108.229 18.5438 108.121 17.5039C108.081 16.6776 108.041 15.8513 108 15C108.33 14.67 108.66 14.34 109 14Z" fill="#FD7B92"/>
<path d="M63 30C66 31 66 31 67 33C67.0402 35.333 67.0432 37.6671 67 40C65.68 39.67 64.36 39.34 63 39C63 38.34 63 37.68 63 37C63.66 36.67 64.32 36.34 65 36C64.34 35.34 63.68 34.68 63 34C63.66 34 64.32 34 65 34C65 33.34 65 32.68 65 32C64.34 32 63.68 32 63 32C63 31.34 63 30.68 63 30Z" fill="#E88582"/>
<path d="M48 23C48.66 23 49.32 23 50 23C50.33 25.31 50.66 27.62 51 30C49.68 30 48.36 30 47 30C47.33 27.69 47.66 25.38 48 23Z" fill="#E26160"/>
<path d="M23 23C23.66 23 24.32 23 25 23C25.33 25.31 25.66 27.62 26 30C24.68 30 23.36 30 22 30C22.33 27.69 22.66 25.38 23 23Z" fill="#E26261"/>
<path d="M38 11C38.99 11 39.98 11 41 11C41 11.66 41 12.32 41 13C41.66 13 42.32 13 43 13C43 12.34 43 11.68 43 11C44.32 11.33 45.64 11.66 47 12C46.34 13.32 45.68 14.64 45 16C42.69 15.34 40.38 14.68 38 14C38 13.01 38 12.02 38 11Z" fill="#EFABA9"/>
<path d="M156 19C156.66 19.33 157.32 19.66 158 20C157.67 22.31 157.34 24.62 157 27C156.01 26.67 155.02 26.34 154 26C154 24.02 154 22.04 154 20C154.66 19.67 155.32 19.34 156 19Z" fill="#FEEEEB"/>
<path d="M11 35C11.33 35 11.66 35 12 35C12 39.29 12 43.58 12 48C10 45 10 45 10 41C9.01 40.67 8.02 40.34 7 40C7.99 39.67 8.98 39.34 10 39C10.7332 36.9849 10.7332 36.9849 11 35Z" fill="#D30C14"/>
<path d="M32 37C33.98 37 35.96 37 38 37C38 38.32 38 39.64 38 41C36.02 41 34.04 41 32 41C32 39.68 32 38.36 32 37Z" fill="#F2B9B9"/>
<path d="M199 32C200.32 32 201.64 32 203 32C202.34 34.64 201.68 37.28 201 40C199 38 199 38 198.875 34.875C198.916 33.9262 198.957 32.9775 199 32Z" fill="#0A0B18"/>
<path d="M60 31C60.66 31 61.32 31 62 31C62 31.66 62 32.32 62 33C62.99 33.33 63.98 33.66 65 34C64.67 34.66 64.34 35.32 64 36C63.34 36 62.68 36 62 36C62 38.64 62 41.28 62 44C61.67 44 61.34 44 61 44C60.67 39.71 60.34 35.42 60 31Z" fill="#D93032"/>
<path d="M29 11C29.99 11.99 30.98 12.98 32 14C29 16 29 16 25 16C24.67 15.01 24.34 14.02 24 13C25.65 12.34 27.3 11.68 29 11Z" fill="#EFAAA7"/>
<path d="M21 65C22.32 65.33 23.64 65.66 25 66C25 67.65 25 69.3 25 71C22.69 70.01 20.38 69.02 18 68C18.99 67.67 19.98 67.34 21 67C21 66.34 21 65.68 21 65Z" fill="#DC3E3F"/>
<path d="M28 50C28.99 50.33 29.98 50.66 31 51C31 51.66 31 52.32 31 53C31.99 53.33 32.98 53.66 34 54C30.37 54.33 26.74 54.66 23 55C23 54.34 23 53.68 23 53C24.32 53 25.64 53 27 53C27.33 52.01 27.66 51.02 28 50Z" fill="#E05D5B"/>
<path d="M56 55C57.65 55 59.3 55 61 55C61.33 55.99 61.66 56.98 62 58C62.66 58.33 63.32 58.66 64 59C61.5091 60.2455 60.5892 59.7768 58 59C58 58.01 58 57.02 58 56C57.34 55.67 56.68 55.34 56 55Z" fill="#E2605F"/>
<path d="M42 10C44.31 10 46.62 10 49 10C49 11.32 49 12.64 49 14C48.01 14.495 48.01 14.495 47 15C46.34 13.68 45.68 12.36 45 11C44.01 11.33 43.02 11.66 42 12C42 11.34 42 10.68 42 10Z" fill="#DA1C20"/>
<path d="M48 49C48.99 49 49.98 49 51 49C51.66 51.64 52.32 54.28 53 57C52.01 56.67 51.02 56.34 50 56C50 55.01 50 54.02 50 53C49.34 53 48.68 53 48 53C48 51.68 48 50.36 48 49Z" fill="#F4C5C3"/>
<path d="M170 64C172.063 64.4375 172.063 64.4375 174 65C174 65.66 174 66.32 174 67C172.68 67 171.36 67 170 67C170 67.66 170 68.32 170 69C170.66 69.33 171.32 69.66 172 70C171.01 70 170.02 70 169 70C168.957 68.3339 168.959 66.6662 169 65C169.33 64.67 169.66 64.34 170 64Z" fill="#787D87"/>
<path d="M23 63C25.475 63.99 25.475 63.99 28 65C27.67 66.32 27.34 67.64 27 69C26.34 69 25.68 69 25 69C24.34 67.68 23.68 66.36 23 65C22.67 65.66 22.34 66.32 22 67C22.33 65.68 22.66 64.36 23 63Z" fill="#F3BFBC"/>
<path d="M29 59C31.475 59.99 31.475 59.99 34 61C34 61.66 34 62.32 34 63C33.34 63 32.68 63 32 63C32 63.66 32 64.32 32 65C29.4892 63.7446 29.1287 62.4994 28 60C28.33 59.67 28.66 59.34 29 59Z" fill="#EEA8A5"/>
<path d="M19 53C19.99 53.33 20.98 53.66 22 54C22 54.66 22 55.32 22 56C22.66 56.33 23.32 56.66 24 57C21 58 21 58 18 57C18.33 55.68 18.66 54.36 19 53Z" fill="#F0ADAA"/>
<path d="M41 50C42.65 50 44.3 50 46 50C46.33 50.99 46.66 51.98 47 53C44.36 53.33 41.72 53.66 39 54C39.66 52.68 40.32 51.36 41 50Z" fill="#DC4748"/>
<path d="M7.99999 27C9.39195 31.1759 7.82322 33.1347 5.99999 37C4.73932 33.218 5.57706 31.6364 6.99999 28C7.32999 27.67 7.65999 27.34 7.99999 27Z" fill="#E32123"/>
<path d="M193 14C195.09 18.1791 195.166 18.8041 194 23C193.34 23 192.68 23 192 23C192.33 20.03 192.66 17.06 193 14Z" fill="#FDA1AD"/>
<path d="M34 61C34.66 61 35.32 61 36 61C36 61.99 36 62.98 36 64C37.65 64 39.3 64 41 64C41 64.33 41 64.66 41 65C38.03 65 35.06 65 32 65C32 64.34 32 63.68 32 63C32.66 63 33.32 63 34 63C34 62.34 34 61.68 34 61Z" fill="#FAE5E4"/>
</g>
<defs>
<clipPath id="clip0_3_106">
<rect width="212" height="84" fill="white"/>
</clipPath>
</defs>
</svg>
